<svg width="195" height="51" viewBox="0 0 195 51" fill="none" xmlns="http://www.w3.org/2000/svg">
<path d="M34.8097 8.98927L33.7919 11.7271C8.64271 4.19649 7.5862 38.796 31.6532 36.8247C32.2973 36.7668 32.6903 37.0567 32.8256 37.6558C33.4612 40.5933 35.2392 42.1329 38.1595 42.2746C36.7036 43.9152 34.7818 45.3946 32.394 46.7131C31.2216 47.3616 30.5301 48.4245 30.3197 49.9018C30.2853 50.1294 30.1522 50.2389 29.9203 50.2304C17.8353 49.831 7.73437 41.1151 6.58127 28.8819C6.55189 28.5683 6.42076 28.2721 6.20764 28.038C1.96242 23.3805 -1.49688 18.0079 0.661156 11.405C0.68068 11.3446 0.714558 11.2898 0.759889 11.2453C0.805221 11.2008 0.860658 11.168 0.921448 11.1496C0.982239 11.1313 1.04657 11.1279 1.10894 11.1399C1.17131 11.1518 1.22986 11.1787 1.27958 11.2182C2.91582 12.5323 4.67661 13.6403 6.56194 14.5422C6.95275 14.7312 7.0322 14.641 6.80029 14.2716C3.97874 9.74298 2.8192 5.42691 4.69379 0.22829C4.78827 -0.0336812 4.93858 -0.0701866 5.14472 0.118776C9.27398 3.86152 14.0281 5.81986 19.6648 7.68157C20.5452 7.96931 21.5136 8.0595 22.5701 7.95213C26.7187 7.53556 30.7985 7.88126 34.8097 8.98927Z" fill="#4047E2"/>
<path d="M34.8097 8.98927C53.0403 11.7915 58.8187 31.8451 46.3794 44.8256C46.2033 45.006 46.1024 44.9716 46.0766 44.7225C45.8833 42.7599 45.3315 40.8875 44.421 39.1052C40.8071 34.5121 36.8582 33.8293 31.5887 32.3412C30.9639 24.6818 31.2731 18.8518 33.7919 11.7271L34.8097 8.98927Z" fill="#FECA01"/>
<path d="M33.7919 11.7271C31.2731 18.8518 30.9639 24.6818 31.5887 32.3412C31.6016 33.9431 31.9881 35.4376 32.7483 36.8247C32.9093 37.1211 32.8707 37.3465 32.8256 37.6558C32.6903 37.0567 32.2973 36.7668 31.6532 36.8247C7.5862 38.796 8.64271 4.19649 33.7919 11.7271ZM27.7043 18.7165C27.7043 17.6914 27.2971 16.7083 26.5722 15.9835C25.8474 15.2586 24.8642 14.8514 23.8391 14.8514C22.814 14.8514 21.8309 15.2586 21.1061 15.9835C20.3812 16.7083 19.974 17.6914 19.974 18.7165C19.974 19.7416 20.3812 20.7248 21.1061 21.4496C21.8309 22.1745 22.814 22.5817 23.8391 22.5817C24.8642 22.5817 25.8474 22.1745 26.5722 21.4496C27.2971 20.7248 27.7043 19.7416 27.7043 18.7165Z" fill="#F8F8F8"/>
<path d="M27.7043 18.7165C27.7043 19.7416 27.2971 20.7248 26.5722 21.4496C25.8474 22.1745 24.8642 22.5817 23.8391 22.5817C22.814 22.5817 21.8309 22.1745 21.1061 21.4496C20.3812 20.7248 19.974 19.7416 19.974 18.7165C19.974 17.6914 20.3812 16.7083 21.1061 15.9835C21.8309 15.2586 22.814 14.8514 23.8391 14.8514C24.8642 14.8514 25.8474 15.2586 26.5722 15.9835C27.2971 16.7083 27.7043 17.6914 27.7043 18.7165ZM25.8168 17.3122C25.8168 16.9654 25.679 16.6328 25.4337 16.3875C25.1885 16.1423 24.8559 16.0045 24.509 16.0045C24.1622 16.0045 23.8296 16.1423 23.5844 16.3875C23.3391 16.6328 23.2013 16.9654 23.2013 17.3122C23.2013 17.659 23.3391 17.9917 23.5844 18.2369C23.8296 18.4822 24.1622 18.6199 24.509 18.6199C24.8559 18.6199 25.1885 18.4822 25.4337 18.2369C25.679 17.9917 25.8168 17.659 25.8168 17.3122Z" fill="#322C49"/>
<path d="M24.509 18.6199C25.2313 18.6199 25.8168 18.0345 25.8168 17.3122C25.8168 16.59 25.2313 16.0045 24.509 16.0045C23.7868 16.0045 23.2013 16.59 23.2013 17.3122C23.2013 18.0345 23.7868 18.6199 24.509 18.6199Z" fill="#F8F8F8"/>
<path d="M31.5887 32.3412C36.8582 33.8293 40.8071 34.5121 44.421 39.1052L38.1595 42.2746C35.2392 42.1329 33.4612 40.5933 32.8256 37.6558C32.8707 37.3465 32.9093 37.1211 32.7483 36.8247C31.9881 35.4376 31.6016 33.9431 31.5887 32.3412Z" fill="#FCA206"/>
<path d="M67.66 36.4775C67.4547 36.4775 67.2867 36.4122 67.156 36.2815C67.0253 36.1508 66.96 35.9828 66.96 35.7775V17.5775C66.96 17.3722 67.0253 17.2042 67.156 17.0735C67.2867 16.9428 67.4547 16.8775 67.66 16.8775H80.736C80.9413 16.8775 81.1093 16.9428 81.24 17.0735C81.3707 17.2042 81.436 17.3722 81.436 17.5775V20.2095C81.436 20.4148 81.3707 20.5828 81.24 20.7135C81.1093 20.8442 80.9413 20.9095 80.736 20.9095H71.804V24.6895H80.12C80.3253 24.6895 80.4933 24.7642 80.624 24.9135C80.7547 25.0442 80.82 25.2122 80.82 25.4175V27.8535C80.82 28.0402 80.7547 28.2082 80.624 28.3575C80.4933 28.4882 80.3253 28.5535 80.12 28.5535H71.804V32.4455H80.96C81.1653 32.4455 81.3333 32.5108 81.464 32.6415C81.5947 32.7722 81.66 32.9402 81.66 33.1455V35.7775C81.66 35.9828 81.5947 36.1508 81.464 36.2815C81.3333 36.4122 81.1653 36.4775 80.96 36.4775H67.66Z" fill="#4047E2"/>
<path d="M89.8848 36.7575C88.9888 36.7575 88.1768 36.6175 87.4488 36.3375C86.7394 36.0388 86.1234 35.6095 85.6008 35.0495C85.0968 34.4708 84.7048 33.7802 84.4248 32.9775C84.1448 32.1562 83.9861 31.2228 83.9488 30.1775C83.9301 29.8042 83.9208 29.4775 83.9208 29.1975C83.9208 28.8988 83.9301 28.5722 83.9488 28.2175C83.9861 27.2095 84.1448 26.3042 84.4248 25.5015C84.7048 24.6988 85.0968 24.0082 85.6008 23.4295C86.1048 22.8508 86.7208 22.4122 87.4488 22.1135C88.1768 21.7962 88.9888 21.6375 89.8848 21.6375C90.8181 21.6375 91.6208 21.7962 92.2928 22.1135C92.9648 22.4122 93.5341 22.8042 94.0008 23.2895V17.2975C94.0008 17.0922 94.0661 16.9242 94.1968 16.7935C94.3274 16.6628 94.4955 16.5975 94.7008 16.5975H98.1168C98.3035 16.5975 98.4621 16.6628 98.5928 16.7935C98.7421 16.9242 98.8168 17.0922 98.8168 17.2975V35.7775C98.8168 35.9828 98.7421 36.1508 98.5928 36.2815C98.4621 36.4122 98.3035 36.4775 98.1168 36.4775H94.9528C94.7475 36.4775 94.5794 36.4122 94.4488 36.2815C94.3181 36.1508 94.2528 35.9828 94.2528 35.7775V34.8815C93.8048 35.4228 93.2261 35.8708 92.5168 36.2255C91.8074 36.5802 90.9301 36.7575 89.8848 36.7575ZM91.3968 33.0055C92.0314 33.0055 92.5261 32.8748 92.8808 32.6135C93.2541 32.3335 93.5248 31.9788 93.6928 31.5495C93.8794 31.1202 93.9821 30.6535 94.0008 30.1495C94.0194 29.7762 94.0288 29.4215 94.0288 29.0855C94.0288 28.7495 94.0194 28.4042 94.0008 28.0495C93.9821 27.5828 93.8794 27.1535 93.6928 26.7615C93.5061 26.3508 93.2261 26.0242 92.8528 25.7815C92.4794 25.5202 91.9941 25.3895 91.3968 25.3895C90.7808 25.3895 90.2861 25.5202 89.9128 25.7815C89.5581 26.0428 89.3061 26.3975 89.1568 26.8455C89.0074 27.2935 88.9141 27.7882 88.8768 28.3295C88.8208 28.9082 88.8208 29.4868 88.8768 30.0655C88.9141 30.6068 89.0074 31.1015 89.1568 31.5495C89.3061 31.9975 89.5581 32.3522 89.9128 32.6135C90.2861 32.8748 90.7808 33.0055 91.3968 33.0055Z" fill="#4047E2"/>
<path d="M107.465 36.7575C106.401 36.7575 105.449 36.5148 104.609 36.0295C103.788 35.5442 103.144 34.8348 102.677 33.9015C102.21 32.9495 101.977 31.7922 101.977 30.4295V22.6175C101.977 22.4122 102.042 22.2442 102.173 22.1135C102.304 21.9828 102.472 21.9175 102.677 21.9175H106.177C106.382 21.9175 106.55 21.9828 106.681 22.1135C106.812 22.2442 106.877 22.4122 106.877 22.6175V30.2615C106.877 32.0908 107.698 33.0055 109.341 33.0055C110.106 33.0055 110.713 32.7722 111.161 32.3055C111.628 31.8202 111.861 31.1388 111.861 30.2615V22.6175C111.861 22.4122 111.926 22.2442 112.057 22.1135C112.188 21.9828 112.356 21.9175 112.561 21.9175H116.061C116.266 21.9175 116.434 21.9828 116.565 22.1135C116.696 22.2442 116.761 22.4122 116.761 22.6175V35.7775C116.761 35.9828 116.696 36.1508 116.565 36.2815C116.434 36.4122 116.266 36.4775 116.061 36.4775H112.813C112.626 36.4775 112.458 36.4122 112.309 36.2815C112.178 36.1508 112.113 35.9828 112.113 35.7775V34.7135C111.628 35.3855 110.993 35.8988 110.209 36.2535C109.444 36.5895 108.529 36.7575 107.465 36.7575Z" fill="#4047E2"/>
<path d="M121.062 36.4775C120.857 36.4775 120.689 36.4122 120.558 36.2815C120.428 36.1508 120.362 35.9828 120.362 35.7775V17.5775C120.362 17.3722 120.428 17.2042 120.558 17.0735C120.689 16.9428 120.857 16.8775 121.062 16.8775H124.674C124.88 16.8775 125.048 16.9428 125.178 17.0735C125.309 17.2042 125.374 17.3722 125.374 17.5775V24.3255H127.082L131.226 17.4095C131.32 17.2602 131.45 17.1388 131.618 17.0455C131.786 16.9335 132.001 16.8775 132.262 16.8775H136.294C136.481 16.8775 136.63 16.9428 136.742 17.0735C136.854 17.1855 136.91 17.3162 136.91 17.4655C136.91 17.5775 136.873 17.6895 136.798 17.8015L131.59 26.3135L137.302 35.5255C137.358 35.6002 137.386 35.7028 137.386 35.8335C137.386 36.0202 137.321 36.1788 137.19 36.3095C137.078 36.4215 136.929 36.4775 136.742 36.4775H132.598C132.3 36.4775 132.076 36.4122 131.926 36.2815C131.796 36.1508 131.693 36.0388 131.618 35.9455L127.278 28.8055H125.374V35.7775C125.374 35.9828 125.309 36.1508 125.178 36.2815C125.048 36.4122 124.88 36.4775 124.674 36.4775H121.062Z" fill="#FCA206"/>
<path d="M146.407 36.7575C144.204 36.7575 142.45 36.1602 141.143 34.9655C139.836 33.7708 139.155 31.9975 139.099 29.6455C139.099 29.5148 139.099 29.3468 139.099 29.1415C139.099 28.9362 139.099 28.7775 139.099 28.6655C139.155 27.1908 139.482 25.9308 140.079 24.8855C140.695 23.8215 141.535 23.0188 142.599 22.4775C143.682 21.9175 144.942 21.6375 146.379 21.6375C148.022 21.6375 149.375 21.9642 150.439 22.6175C151.522 23.2708 152.334 24.1575 152.875 25.2775C153.416 26.3975 153.687 27.6762 153.687 29.1135V29.7855C153.687 29.9908 153.612 30.1588 153.463 30.2895C153.332 30.4202 153.174 30.4855 152.987 30.4855H144.027C144.027 30.5042 144.027 30.5322 144.027 30.5695C144.027 30.6068 144.027 30.6442 144.027 30.6815C144.046 31.2228 144.139 31.7175 144.307 32.1655C144.475 32.6135 144.736 32.9682 145.091 33.2295C145.446 33.4908 145.875 33.6215 146.379 33.6215C146.752 33.6215 147.06 33.5655 147.303 33.4535C147.564 33.3228 147.779 33.1828 147.947 33.0335C148.115 32.8655 148.246 32.7255 148.339 32.6135C148.507 32.4268 148.638 32.3148 148.731 32.2775C148.843 32.2215 149.011 32.1935 149.235 32.1935H152.707C152.894 32.1935 153.043 32.2495 153.155 32.3615C153.286 32.4548 153.342 32.5948 153.323 32.7815C153.304 33.0988 153.146 33.4815 152.847 33.9295C152.548 34.3775 152.11 34.8255 151.531 35.2735C150.971 35.7028 150.262 36.0575 149.403 36.3375C148.544 36.6175 147.546 36.7575 146.407 36.7575ZM144.027 27.7135H148.759V27.6575C148.759 27.0602 148.666 26.5375 148.479 26.0895C148.311 25.6415 148.04 25.2962 147.667 25.0535C147.312 24.8108 146.883 24.6895 146.379 24.6895C145.875 24.6895 145.446 24.8108 145.091 25.0535C144.755 25.2962 144.494 25.6415 144.307 26.0895C144.12 26.5375 144.027 27.0602 144.027 27.6575V27.7135Z" fill="#FCA206"/>
<path d="M157.012 36.4775C156.807 36.4775 156.639 36.4122 156.508 36.2815C156.377 36.1508 156.312 35.9828 156.312 35.7775V22.6175C156.312 22.4122 156.377 22.2442 156.508 22.1135C156.639 21.9828 156.807 21.9175 157.012 21.9175H160.148C160.335 21.9175 160.493 21.9828 160.624 22.1135C160.773 22.2442 160.848 22.4122 160.848 22.6175V32.8095H164.096V22.6175C164.096 22.4122 164.161 22.2442 164.292 22.1135C164.423 21.9828 164.591 21.9175 164.796 21.9175H167.652C167.857 21.9175 168.025 21.9828 168.156 22.1135C168.287 22.2442 168.352 22.4122 168.352 22.6175V32.8095H171.6V22.6175C171.6 22.4122 171.665 22.2442 171.796 22.1135C171.945 21.9828 172.113 21.9175 172.3 21.9175H175.436C175.641 21.9175 175.809 21.9828 175.94 22.1135C176.071 22.2442 176.136 22.4122 176.136 22.6175V35.7775C176.136 35.9828 176.071 36.1508 175.94 36.2815C175.809 36.4122 175.641 36.4775 175.436 36.4775H157.012Z" fill="#FCA206"/>
<path d="M183.922 36.7575C182.914 36.7575 182.009 36.5708 181.206 36.1975C180.422 35.8055 179.797 35.2828 179.33 34.6295C178.864 33.9762 178.63 33.2388 178.63 32.4175C178.63 31.0922 179.172 30.0468 180.254 29.2815C181.337 28.4975 182.774 27.9655 184.566 27.6855L188.066 27.1535V26.7615C188.066 26.0895 187.926 25.5762 187.646 25.2215C187.366 24.8668 186.853 24.6895 186.106 24.6895C185.584 24.6895 185.154 24.7922 184.818 24.9975C184.501 25.2028 184.249 25.4828 184.062 25.8375C183.894 26.0802 183.661 26.2015 183.362 26.2015H180.226C180.021 26.2015 179.862 26.1455 179.75 26.0335C179.638 25.9028 179.592 25.7535 179.61 25.5855C179.61 25.2495 179.732 24.8668 179.974 24.4375C180.236 23.9895 180.628 23.5508 181.15 23.1215C181.673 22.6922 182.345 22.3375 183.166 22.0575C183.988 21.7775 184.977 21.6375 186.134 21.6375C187.348 21.6375 188.384 21.7775 189.242 22.0575C190.101 22.3375 190.792 22.7295 191.314 23.2335C191.856 23.7375 192.257 24.3348 192.518 25.0255C192.78 25.6975 192.91 26.4442 192.91 27.2655V35.7775C192.91 35.9828 192.836 36.1508 192.686 36.2815C192.556 36.4122 192.397 36.4775 192.21 36.4775H188.962C188.757 36.4775 188.589 36.4122 188.458 36.2815C188.328 36.1508 188.262 35.9828 188.262 35.7775V34.7975C188.02 35.1522 187.693 35.4788 187.282 35.7775C186.872 36.0762 186.386 36.3095 185.826 36.4775C185.285 36.6642 184.65 36.7575 183.922 36.7575ZM185.238 33.5655C185.78 33.5655 186.265 33.4535 186.694 33.2295C187.142 32.9868 187.488 32.6228 187.73 32.1375C187.992 31.6335 188.122 31.0082 188.122 30.2615V29.8695L185.742 30.2895C184.865 30.4388 184.221 30.6722 183.81 30.9895C183.418 31.2882 183.222 31.6428 183.222 32.0535C183.222 32.3708 183.316 32.6415 183.502 32.8655C183.689 33.0895 183.932 33.2668 184.23 33.3975C184.529 33.5095 184.865 33.5655 185.238 33.5655Z" fill="#FCA206"/>
</svg>
